<?xml version="1.0" encoding="UTF-8"?>
<svg version="1.1" xmlns="http://www.w3.org/2000/svg" width="512" height="512">
<path d="M0 0 C5.75674457 3.39475801 10.53098507 8.3203193 12.97265625 14.6484375 C14.42684598 21.80940542 14.62922727 30.29972456 11.4375 36.9375 C12.613125 37.2778125 12.613125 37.2778125 13.8125 37.625 C18.56051625 39.34410933 22.95852552 41.61834721 27.4375 43.9375 C27.37949219 43.11507812 27.32148438 42.29265625 27.26171875 41.4453125 C26.89251879 32.31025066 28.06530198 25.77618776 34.3046875 18.87109375 C41.84626214 11.84305045 49.33587546 10.17520339 59.484375 10.53125 C68.05161881 11.41167822 73.477934 15.23560185 78.96484375 21.6796875 C84.20565724 29.71467476 84.38688427 37.69926072 83.4375 46.9375 C81.34431378 54.41870259 76.7787345 59.60130345 70.4375 63.9375 C66.60532314 66.0787782 62.73502659 67.13217134 58.4375 67.9375 C59.25541016 68.79408203 59.25541016 68.79408203 60.08984375 69.66796875 C83.56365409 94.90733063 93.66627523 125.84936499 94.4375 159.9375 C95.613125 160.0921875 95.613125 160.0921875 96.8125 160.25 C99.4375 160.9375 99.4375 160.9375 101.4375 163.9375 C101.8834172 167.37720622 101.76917868 170.84708261 101.75 174.3125 C101.74581055 175.33529053 101.74162109 176.35808105 101.73730469 177.41186523 C101.12751161 219.52975443 82.79199529 251.9163891 53.4375 280.9375 C50.31452189 283.80037639 47.11965253 286.56737306 43.86328125 289.27734375 C38.1905088 295.49821016 38.07585397 302.04221126 38.4375 310.125 C38.90877129 320.79929465 38.90877129 320.79929465 35.4375 324.9375 C34.4475 325.5975 33.4575 326.2575 32.4375 326.9375 C33.57561926 336.63367666 33.57561926 336.63367666 38.34375 344.3515625 C39.73636041 344.6997151 41.13828657 345.01256181 42.546875 345.2890625 C44.4375 345.9375 44.4375 345.9375 45.703125 347.5859375 C46.80256993 350.00297119 47.64014035 352.40366822 48.4375 354.9375 C48.82035156 356.05511719 49.20320313 357.17273438 49.59765625 358.32421875 C52.37758174 367.04093427 53.49550462 373.55512592 49.875 382.0625 C45.36346559 390.09367119 39.29144294 393.24824122 30.71243286 395.76089478 C21.00417405 398.46558935 11.22877537 400.92418818 1.46484375 403.41796875 C-0.95086942 404.03735466 -3.36651262 404.65701352 -5.78208923 405.27693176 C-12.10410288 406.8985834 -18.42706918 408.51648938 -24.75024414 410.13360596 C-31.20063152 411.78400042 -37.65007077 413.43808893 -44.09960938 415.09179688 C-53.50220458 417.50212447 -62.90514062 419.91111403 -72.30883789 422.31713867 C-73.2932637 422.5690799 -74.27768951 422.82102112 -75.29194641 423.08059692 C-76.64772797 423.42738243 -76.64772797 423.42738243 -78.03089905 423.78117371 C-78.81413072 423.98153827 -79.59736238 424.18190283 -80.40432835 424.38833904 C-81.11652499 424.56956216 -81.82872164 424.75078527 -82.5625 424.9375 C-83.25054435 425.12143468 -83.9385887 425.30536936 -84.64748287 425.49487782 C-91.0091181 426.96525677 -99.05360347 427.0999647 -105.0625 424.375 C-112.84550047 419.36523969 -116.27462041 411.9099918 -119.9375 403.6875 C-124.78518615 393.18390453 -129.79435646 383.75773613 -138.5625 375.9375 C-139.305 375.256875 -140.0475 374.57625 -140.8125 373.875 C-154.18056125 364.45659321 -168.1801289 366.68770067 -183.5625 368.9375 C-203.8938909 371.7313917 -223.88866163 374.30347056 -241.75 362.0625 C-250.60061747 354.92105866 -254.41940108 346.63775292 -255.9140625 335.26171875 C-256.13919222 328.84552174 -254.50231554 323.01097008 -252.5625 316.9375 C-253.655625 316.525 -254.74875 316.1125 -255.875 315.6875 C-259.0843407 314.31299449 -260.81087663 313.05149711 -262.5625 309.9375 C-264.30698199 304.70405404 -264.24103621 299.05792565 -262.5625 293.8125 C-262.2325 293.19375 -261.9025 292.575 -261.5625 291.9375 C-262.305 291.421875 -263.0475 290.90625 -263.8125 290.375 C-267.48251957 287.12202811 -270.06736925 283.78175111 -270.9140625 278.91796875 C-271.11404294 274.16388823 -270.25764963 270.81177759 -267.5625 266.9375 C-265.54199254 265.27808725 -263.48183132 263.77947302 -261.3046875 262.33203125 C-259.26865044 260.96098757 -259.26865044 260.96098757 -258.5625 257.9375 C-259.34625 257.89625 -260.13 257.855 -260.9375 257.8125 C-267.54065364 256.21863533 -273.57414431 252.79637508 -277.625 247.25 C-280.33269573 242.62071375 -280.74474865 239.42654309 -280.8125 234.125 C-280.83828125 232.92230469 -280.8640625 231.71960938 -280.890625 230.48046875 C-280.20866567 223.11693172 -275.79283974 217.66101058 -270.296875 213.02734375 C-267.03717714 210.43258426 -263.76552593 207.85536423 -260.453125 205.328125 C-256.11076099 201.81949488 -252.72110647 197.85873839 -249.4375 193.375 C-249.02234131 192.83270752 -248.60718262 192.29041504 -248.17944336 191.73168945 C-246.85813088 189.9371186 -246.85813088 189.9371186 -245.5625 186.9375 C-246.337885 182.73130194 -248.25532602 179.55881587 -250.5625 176 C-255.06657211 168.61067876 -256.59785186 162.40643532 -254.5625 153.9375 C-253.64441646 151.81546259 -252.68175201 149.71243457 -251.6875 147.625 C-248.19896076 139.97513181 -247.29162708 132.54083317 -246.26171875 124.25390625 C-243.40331491 101.45679508 -235.60517399 77.04672295 -219.5625 59.9375 C-217.12760262 58.72005131 -216.15995125 59.09972841 -213.5 59.4375 C-210.08911268 59.50913414 -208.83033655 59.14142579 -206.07421875 57.04296875 C-203.8056364 54.74468319 -201.66782748 52.38526026 -199.5625 49.9375 C-198.68851563 49.15439453 -198.68851563 49.15439453 -197.796875 48.35546875 C-196.18131796 46.82605983 -196.18131796 46.82605983 -196.6875 43.5625 C-196.5625 39.9375 -196.5625 39.9375 -194.41015625 37.44921875 C-170.94093015 16.74865306 -133.03589981 7.99121427 -102.51171875 7.69921875 C-101.69049026 7.691147 -100.86926178 7.68307526 -100.02314758 7.67475891 C-98.30475909 7.66104616 -96.58634482 7.65026792 -94.86791992 7.64233398 C-93.11360674 7.63071818 -91.35933142 7.61011853 -89.60522461 7.58081055 C-87.0529819 7.53828505 -84.50177086 7.52199879 -81.94921875 7.51171875 C-80.77573128 7.48545662 -80.77573128 7.48545662 -79.57853699 7.45866394 C-76.05509997 7.47275682 -73.95497454 7.66126079 -71.03833008 9.71411133 C-69.5625 11.9375 -69.5625 11.9375 -69.5625 15.9375 C-68.65371094 15.97488281 -67.74492187 16.01226562 -66.80859375 16.05078125 C-57.47128774 16.53919418 -48.68742838 17.87953743 -39.5625 19.9375 C-39.39234375 18.59171875 -39.39234375 18.59171875 -39.21875 17.21875 C-37.83181961 10.28409806 -33.64411655 5.35259378 -27.875 1.4375 C-19.81002306 -3.57699343 -8.64599061 -4.01985844 0 0 Z " fill="#DE636D" transform="translate(280.5625,86.0625)"/>
<path d="M0 0 C0.82122849 -0.00807175 1.64245697 -0.01614349 2.48857117 -0.02445984 C4.20695966 -0.03817259 5.92537393 -0.04895083 7.64379883 -0.05688477 C9.39811201 -0.06850057 11.15238733 -0.08910022 12.90649414 -0.1184082 C15.45873685 -0.1609337 18.00994789 -0.17721996 20.5625 -0.1875 C21.73598747 -0.21376213 21.73598747 -0.21376213 22.93318176 -0.24055481 C26.45661878 -0.22646193 28.55674421 -0.03795796 31.47338867 2.01489258 C32.94921875 4.23828125 32.94921875 4.23828125 32.94921875 8.23828125 C33.85800781 8.27566406 34.76679688 8.31304687 35.703125 8.3515625 C45.04043101 8.83997543 53.82429037 10.18031868 62.94921875 12.23828125 C63.0471875 13.08390625 63.14515625 13.92953125 63.24609375 14.80078125 C64.53084097 24.54713946 66.10889171 31.78688352 74.11328125 37.984375 C80.77790937 42.5361742 87.08479828 43.06336653 94.94921875 42.23828125 C97.71911208 41.41674077 100.270652 40.33840688 102.94921875 39.23828125 C116.61263427 40.88584487 133.69045805 57.65492293 142.94921875 67.23828125 C144.38077217 69.19226098 145.66273984 71.18229187 146.94921875 73.23828125 C145.93214844 73.35042969 145.93214844 73.35042969 144.89453125 73.46484375 C133.40525617 75.08798233 125.95376722 80.09989682 118.94921875 89.23828125 C115.94921875 88.23828125 115.94921875 88.23828125 114.32421875 85.67578125 C109.25331591 77.70447565 101.87272685 72.89511861 92.94921875 70.23828125 C91.55555774 69.93640522 90.15979959 69.64397702 88.76171875 69.36328125 C84.57384209 68.12751437 82.77805114 66.57955641 79.6484375 63.703125 C74.63169177 59.3783442 69.11678005 58.66031566 62.734375 58.80078125 C58.88087597 59.40609947 56.12949516 60.98613264 52.921875 63.14453125 C50.94921875 64.23828125 50.94921875 64.23828125 46.94921875 64.23828125 C42.97092405 63.06786357 39.3672723 61.6037554 35.94921875 59.23828125 C34.84105272 56.44613744 34.99871217 54.30687329 34.94921875 51.23828125 C32.49504799 48.38050681 30.81381289 48.2232512 27.04296875 47.8046875 C25.51190484 47.7807803 23.98033693 47.78064747 22.44921875 47.80078125 C21.24144775 47.81322876 21.24144775 47.81322876 20.00927734 47.82592773 C8.2040249 48.15745641 -1.33493564 52.68502701 -11.05078125 59.23828125 C-11.74494141 60.11806641 -11.74494141 60.11806641 -12.453125 61.015625 C-14.05078125 62.23828125 -14.05078125 62.23828125 -17.2265625 61.94921875 C-18.48855469 61.71460938 -19.75054687 61.48 -21.05078125 61.23828125 C-34.48100583 60.31569467 -44.74566883 61.42684857 -55.42578125 70.48828125 C-60.29354973 75.18387786 -64.78156248 80.37940086 -66.921875 86.88671875 C-68.05078125 89.23828125 -68.05078125 89.23828125 -70.1171875 90.35546875 C-70.94089844 90.60554688 -71.76460938 90.855625 -72.61328125 91.11328125 C-84.36154699 95.34536545 -92.63488553 104.62751904 -98.0078125 115.6484375 C-100.36978235 121.51355364 -101.38535467 126.87053081 -101.30078125 133.17578125 C-101.29498047 134.23128174 -101.29498047 134.23128174 -101.2890625 135.30810547 C-101.20574925 140.29880071 -100.45916021 144.48500225 -99.05078125 149.23828125 C-98.47737531 153.53882584 -99.43692094 156.31808866 -101.05078125 160.23828125 C-105.12591963 171.03228577 -103.45899315 180.69267261 -99.53515625 191.27734375 C-98.02581835 194.28807567 -96.66476717 196.13186541 -94.05078125 198.23828125 C-90.95745014 198.56735903 -88.62616396 198.40427497 -85.640625 197.54296875 C-82.26225589 197.14551356 -81.23080015 198.03604873 -78.55078125 200.05078125 C-76.11446012 201.85657561 -74.23908534 203.17478653 -71.3515625 204.1484375 C-69.05078125 205.23828125 -69.05078125 205.23828125 -68.125 207.40234375 C-67.99738281 208.21445312 -67.86976562 209.0265625 -67.73828125 209.86328125 C-67.59777344 210.68054688 -67.45726563 211.4978125 -67.3125 212.33984375 C-67.22613281 212.96632813 -67.13976562 213.5928125 -67.05078125 214.23828125 C-57.52276622 214.74569033 -49.90085758 213.8690818 -41.05078125 210.23828125 C-40.58929688 210.89054688 -40.1278125 211.5428125 -39.65234375 212.21484375 C-33.43178931 220.54989496 -26.47604222 226.22638878 -16.05078125 228.23828125 C-14.23834072 228.3228982 -12.4258347 228.4061188 -10.61328125 228.48828125 C-5.71338443 228.91904141 -2.4286354 229.9154643 1.31640625 233.16015625 C4.33428552 237.00109351 5.21495848 241.42391408 6.38037109 246.09619141 C7.52911618 250.42198083 8.95132178 254.66700632 10.32421875 258.92578125 C10.93242207 260.82417698 11.54049479 262.72261455 12.1484375 264.62109375 C12.44927246 265.55727539 12.75010742 266.49345703 13.06005859 267.45800781 C13.91433396 270.12920162 14.75476037 272.80444245 15.59375 275.48046875 C16.10743551 277.08744348 16.62172624 278.69422491 17.13671875 280.30078125 C17.36214355 281.03192139 17.58756836 281.76306152 17.81982422 282.51635742 C19.6877191 288.26586539 21.67300079 291.84827082 26.87890625 295.02734375 C32.36464275 297.10168358 38.29893857 296.67109829 44.07421875 296.61328125 C45.82412109 296.63068359 45.82412109 296.63068359 47.609375 296.6484375 C48.73472656 296.64457031 49.86007813 296.64070313 51.01953125 296.63671875 C52.03805176 296.63333496 53.05657227 296.62995117 54.10595703 296.62646484 C58.35456336 296.04641298 61.0024285 294.3483112 63.76171875 291.11328125 C66.85846469 283.61589634 64.42415855 276.86974873 61.97265625 269.48046875 C60.59791967 265.12538723 59.72051031 260.73409915 58.94921875 256.23828125 C62.8979942 256.53443941 65.52129734 257.4508357 68.76171875 259.61328125 C77.48096798 265.29974814 86.36392652 266.56903427 96.62109375 264.76953125 C106.37934842 262.2238996 114.17165725 256.46192723 119.94921875 248.23828125 C122.34900679 244.00765187 123.92718616 240.51617129 124.01171875 235.61328125 C125.39963708 230.61677525 128.75862461 229.50585299 133.09375 226.9765625 C143.19918901 220.82482466 149.79550245 209.46337316 152.94921875 198.23828125 C153.79314274 192.62899967 153.79314274 192.62899967 151.734375 187.609375 C149.95246462 186.07099376 149.95246462 186.07099376 147.36328125 185.47265625 C144.94921875 184.23828125 144.94921875 184.23828125 143.91015625 181.19140625 C143.71679688 179.969375 143.5234375 178.74734375 143.32421875 177.48828125 C142.50556585 172.49130901 141.30450579 168.71527314 138.94921875 164.23828125 C138.84978103 160.45964799 140.3866167 158.63601343 142.69921875 155.86328125 C145.36766275 152.58723381 146.49603036 149.65752879 147.546875 145.57397461 C149.77352366 137.03127207 149.77352366 137.03127207 153.61328125 134.44140625 C155.67104559 133.68081487 157.75387387 132.98490682 159.85546875 132.35546875 C164.87574644 130.5425907 168.2608375 126.99186116 171.94921875 123.23828125 C179.14045169 130.42951419 177.28806555 150.45742406 177.32421875 159.86328125 C177.10549301 194.53131115 171.58508415 227.34283777 146.94921875 253.23828125 C146.22605469 254.00527344 145.50289063 254.77226562 144.7578125 255.5625 C141.59212817 258.81491541 138.29295094 261.81379249 134.82421875 264.73828125 C127.45490517 271.10861126 122.56867152 278.54668635 120.94921875 288.23828125 C119.42831009 311.03303096 123.42803655 329.81496408 130.95092773 351.16577148 C131.53015991 352.82201538 131.53015991 352.82201538 132.12109375 354.51171875 C132.47268555 355.49575684 132.82427734 356.47979492 133.18652344 357.49365234 C133.95448358 360.25722724 134.25172867 362.38905267 133.94921875 365.23828125 C130.15655344 368.42739865 125.48060409 369.33716374 120.76171875 370.48828125 C119.05183805 370.92221172 117.34221644 371.35716397 115.6328125 371.79296875 C114.71612793 372.02467773 113.79944336 372.25638672 112.85498047 372.49511719 C107.66588947 373.82225489 102.49559422 375.21898297 97.32421875 376.61328125 C96.2252124 376.90871826 95.12620605 377.20415527 93.99389648 377.50854492 C86.42137234 379.55105034 78.8705083 381.66371085 71.32421875 383.80078125 C62.16734868 386.3914669 52.97319182 388.76299216 43.73095703 391.02832031 C34.39964755 393.33284514 25.16941749 395.95412642 15.95019531 398.66918945 C15.28987305 398.85698975 14.62955078 399.04479004 13.94921875 399.23828125 C13.29147461 399.42672607 12.63373047 399.6151709 11.95605469 399.80932617 C9.80913382 400.26822398 7.89146684 400.33731872 5.69921875 400.30078125 C3.84296875 400.26984375 3.84296875 400.26984375 1.94921875 400.23828125 C1.52511719 399.30628906 1.10101563 398.37429688 0.6640625 397.4140625 C-9.01341592 376.2960136 -19.18775966 355.38348988 -42.05078125 346.23828125 C-47.53865416 344.34933949 -52.37918267 343.88931277 -58.11328125 343.92578125 C-58.9839624 343.92707031 -59.85464355 343.92835938 -60.75170898 343.9296875 C-67.14704389 344.02097607 -73.30273692 344.74382253 -79.61328125 345.73828125 C-88.20968297 347.06486728 -96.6650065 347.60010809 -105.36328125 347.67578125 C-106.49000244 347.69769531 -107.61672363 347.71960938 -108.77758789 347.7421875 C-118.2598796 347.71947372 -125.5926564 345.38769091 -132.609375 338.859375 C-136.82070285 334.12305777 -137.57946924 328.89279297 -137.421875 322.79296875 C-136.90884154 319.26113838 -135.52138919 316.44462382 -133.95703125 313.265625 C-132.66293178 310.37063523 -132.49689376 308.3538984 -133.05078125 305.23828125 C-135.79365305 299.63825132 -139.76076429 297.14008667 -145.05078125 294.23828125 C-143.8990477 291.77028078 -143.0029456 290.1904456 -141.05078125 288.23828125 C-140.32370616 284.84526418 -140.05262107 283.46637376 -141.05078125 280.23828125 C-144.06212633 276.53201038 -147.45510064 273.37166007 -151.05078125 270.23828125 C-150.05078125 267.23828125 -150.05078125 267.23828125 -147.80078125 265.55078125 C-143.70317333 262.1050655 -140.6486708 258.28442541 -139.59765625 252.9296875 C-139.41261441 249.01076562 -139.91816501 246.5311421 -141.55078125 242.92578125 C-144.71051886 239.52906332 -147.84589005 238.05558504 -152.05078125 236.23828125 C-153.49354811 235.56190392 -154.93127118 234.87464436 -156.36328125 234.17578125 C-156.99878906 233.87542969 -157.63429687 233.57507813 -158.2890625 233.265625 C-160.24280428 232.12630329 -161.58844866 230.96174467 -163.05078125 229.23828125 C-163.73828125 226.55078125 -163.73828125 226.55078125 -163.05078125 223.23828125 C-159.45812057 218.53569288 -154.75841999 214.96889755 -150.11328125 211.36328125 C-140.8874687 204.10432138 -129.74231184 193.09101099 -127.671875 181.03125 C-127.16961574 173.90344304 -129.23033075 169.17726699 -133.11694336 163.36206055 C-136.0930703 158.7951874 -136.95589565 155.60458898 -137.05078125 150.23828125 C-135.90625 146.9296875 -135.90625 146.9296875 -134.23828125 143.80078125 C-130.37434801 136.46756828 -129.02653337 129.54652648 -128.47045898 121.3527832 C-126.98802132 100.14859206 -119.7585964 79.93422545 -106.16796875 63.4140625 C-104.61173249 60.38321076 -105.30748187 58.49769175 -106.05078125 55.23828125 C-106.05078125 51.23828125 -106.05078125 51.23828125 -104.1875 48.984375 C-103.37925781 48.22253906 -102.57101563 47.46070313 -101.73828125 46.67578125 C-100.93777344 45.91136719 -100.13726562 45.14695313 -99.3125 44.359375 C-97.97851626 43.10833326 -96.62985165 41.87213642 -95.25 40.671875 C-93.67809188 39.11782976 -93.67809188 39.11782976 -94.17578125 35.86328125 C-94.05078125 32.23828125 -94.05078125 32.23828125 -91.8984375 29.75 C-68.4292114 9.04943431 -30.52418106 0.29199552 0 0 Z " fill="#FDD1A3" transform="translate(178.05078125,93.76171875)"/>
<path d="M0 0 C5.18302524 3.85329779 9.77164117 9.07870018 11.0859375 15.55078125 C12.03365002 29.42047872 12.03365002 29.42047872 9.0859375 35.55078125 C10.2615625 35.89109375 10.2615625 35.89109375 11.4609375 36.23828125 C16.20895375 37.95739058 20.60696302 40.23162846 25.0859375 42.55078125 C25.02792969 41.72835937 24.96992188 40.9059375 24.91015625 40.05859375 C24.54095629 30.92353191 25.71373948 24.38946901 31.953125 17.484375 C39.49469964 10.4563317 46.98431296 8.78848464 57.1328125 9.14453125 C65.70005631 10.02495947 71.1263715 13.8488831 76.61328125 20.29296875 C81.85409474 28.32795601 82.03532177 36.31254197 81.0859375 45.55078125 C78.99275128 53.03198384 74.427172 58.2145847 68.0859375 62.55078125 C64.25376064 64.69205945 60.38346409 65.74545259 56.0859375 66.55078125 C56.90384766 67.40736328 56.90384766 67.40736328 57.73828125 68.28125 C81.21209159 93.52061188 91.31471273 124.46264624 92.0859375 158.55078125 C93.2615625 158.70546875 93.2615625 158.70546875 94.4609375 158.86328125 C97.0859375 159.55078125 97.0859375 159.55078125 99.0859375 162.55078125 C99.5318547 165.99048747 99.41761618 169.46036386 99.3984375 172.92578125 C99.39424805 173.94857178 99.39005859 174.9713623 99.38574219 176.02514648 C98.77594911 218.14303568 80.44043279 250.52967035 51.0859375 279.55078125 C47.96295939 282.41365764 44.76809003 285.18065431 41.51171875 287.890625 C35.8389463 294.11149141 35.72429147 300.65549251 36.0859375 308.73828125 C36.55720879 319.4125759 36.55720879 319.4125759 33.0859375 323.55078125 C32.0959375 324.21078125 31.1059375 324.87078125 30.0859375 325.55078125 C31.22405676 335.24695791 31.22405676 335.24695791 35.9921875 342.96484375 C37.38479791 343.31299635 38.78672407 343.62584306 40.1953125 343.90234375 C42.0859375 344.55078125 42.0859375 344.55078125 43.3515625 346.19921875 C44.45100743 348.61625244 45.28857785 351.01694947 46.0859375 353.55078125 C46.46878906 354.66839844 46.85164063 355.78601563 47.24609375 356.9375 C50.02601924 365.65421552 51.14394212 372.16840717 47.5234375 380.67578125 C43.01190309 388.70695244 36.93988044 391.86152247 28.36087036 394.37417603 C18.65261155 397.0788706 8.87721287 399.53746943 -0.88671875 402.03125 C-3.30243192 402.65063591 -5.71807512 403.27029477 -8.13365173 403.89021301 C-14.45566538 405.51186465 -20.77863168 407.12977063 -27.10180664 408.74688721 C-33.55219402 410.39728167 -40.00163327 412.05137018 -46.45117188 413.70507812 C-55.85376708 416.11540572 -65.25670312 418.52439528 -74.66040039 420.93041992 C-75.6448262 421.18236115 -76.62925201 421.43430237 -77.64350891 421.69387817 C-78.99929047 422.04066368 -78.99929047 422.04066368 -80.38246155 422.39445496 C-81.16569322 422.59481952 -81.94892488 422.79518408 -82.75589085 423.00162029 C-83.46808749 423.18284341 -84.18028414 423.36406652 -84.9140625 423.55078125 C-85.60210685 423.73471593 -86.2901512 423.91865061 -86.99904537 424.10815907 C-93.3606806 425.57853802 -101.40516597 425.71324595 -107.4140625 422.98828125 C-115.19706297 417.97852094 -118.62618291 410.52327305 -122.2890625 402.30078125 C-127.13674865 391.79718578 -132.14591896 382.37101738 -140.9140625 374.55078125 C-141.6565625 373.87015625 -142.3990625 373.18953125 -143.1640625 372.48828125 C-156.53212375 363.06987446 -170.5316914 365.30098192 -185.9140625 367.55078125 C-206.2454534 370.34467295 -226.24022413 372.91675181 -244.1015625 360.67578125 C-252.95217997 353.53433991 -256.77096358 345.25103417 -258.265625 333.875 C-258.49075472 327.45880299 -256.85387804 321.62425133 -254.9140625 315.55078125 C-256.0071875 315.13828125 -257.1003125 314.72578125 -258.2265625 314.30078125 C-261.4359032 312.92627574 -263.16243913 311.66477836 -264.9140625 308.55078125 C-266.65854449 303.31733529 -266.59259871 297.6712069 -264.9140625 292.42578125 C-264.5840625 291.80703125 -264.2540625 291.18828125 -263.9140625 290.55078125 C-264.6565625 290.03515625 -265.3990625 289.51953125 -266.1640625 288.98828125 C-269.83408207 285.73530936 -272.41893175 282.39503236 -273.265625 277.53125 C-273.46560544 272.77716948 -272.60921213 269.42505884 -269.9140625 265.55078125 C-267.89355504 263.8913685 -265.83339382 262.39275427 -263.65625 260.9453125 C-261.62021294 259.57426882 -261.62021294 259.57426882 -260.9140625 256.55078125 C-261.6978125 256.50953125 -262.4815625 256.46828125 -263.2890625 256.42578125 C-269.89221614 254.83191658 -275.92570681 251.40965633 -279.9765625 245.86328125 C-282.68425823 241.233995 -283.09631115 238.03982434 -283.1640625 232.73828125 C-283.18984375 231.53558594 -283.215625 230.33289063 -283.2421875 229.09375 C-282.56022817 221.73021297 -278.14440224 216.27429183 -272.6484375 211.640625 C-269.38873964 209.04586551 -266.11708843 206.46864548 -262.8046875 203.94140625 C-258.46232349 200.43277613 -255.07266897 196.47201964 -251.7890625 191.98828125 C-251.37390381 191.44598877 -250.95874512 190.90369629 -250.53100586 190.3449707 C-249.20969338 188.55039985 -249.20969338 188.55039985 -247.9140625 185.55078125 C-248.6894475 181.34458319 -250.60688852 178.17209712 -252.9140625 174.61328125 C-257.41813461 167.22396001 -258.94941436 161.01971657 -256.9140625 152.55078125 C-255.99597896 150.42874384 -255.03331451 148.32571582 -254.0390625 146.23828125 C-250.55052326 138.58841306 -249.64318958 131.15411442 -248.61328125 122.8671875 C-245.75487741 100.07007633 -237.95673649 75.6600042 -221.9140625 58.55078125 C-219.07322609 57.13036304 -217.05928972 57.23625853 -213.9140625 57.55078125 C-211.07400673 59.54649612 -210.10356716 60.97057977 -209.02734375 64.265625 C-208.87346408 68.72813538 -210.84100637 71.07534845 -213.4140625 74.48828125 C-225.59053518 91.7320612 -230.61201364 109.72850463 -232.7487793 130.56469727 C-233.68697205 139.08852964 -235.28112271 147.09553082 -240.12890625 154.375 C-241.38296012 157.85016422 -240.83773536 161.06620273 -239.9140625 164.55078125 C-238.62755376 166.95788534 -237.35339787 169.11199134 -235.8515625 171.36328125 C-232.0905681 177.50549696 -230.32199037 182.37555206 -231.9140625 189.55078125 C-235.9243576 202.49121803 -247.92249495 213.07608534 -257.9140625 221.55078125 C-259.43649832 222.88228453 -260.95745579 224.21548105 -262.4765625 225.55078125 C-263.11722656 226.10765625 -263.75789063 226.66453125 -264.41796875 227.23828125 C-266.77757726 229.18077731 -266.77757726 229.18077731 -267.2890625 232.36328125 C-267.2127861 235.61877181 -267.2127861 235.61877181 -265.0390625 237.67578125 C-262.33108197 239.30056957 -259.91008621 240.37770139 -256.9765625 241.48828125 C-251.8957961 243.41912392 -247.65633546 245.60045143 -244.79296875 250.44921875 C-243.21675906 254.21811125 -243.08952226 257.5582706 -243.9140625 261.55078125 C-246.69311733 266.81956465 -249.98180183 271.1680361 -254.9140625 274.55078125 C-253.46220948 278.00466317 -251.59898682 279.86349922 -248.7890625 282.30078125 C-246.03399102 285.00065093 -244.31992748 286.74521166 -244.1015625 290.67578125 C-245.10178626 295.4460792 -246.51766964 297.15438839 -249.9140625 300.55078125 C-249.0478125 300.73640625 -248.1815625 300.92203125 -247.2890625 301.11328125 C-242.4542353 303.1725595 -239.26288705 306.85313214 -236.9140625 311.55078125 C-236.94885153 315.89941042 -237.42561644 319.63250267 -239.4765625 323.48828125 C-241.81963647 328.48004752 -241.78003903 333.46812265 -240.29296875 338.76171875 C-237.54885828 345.12805503 -232.61757821 348.83921958 -226.4375 351.6953125 C-221.10753554 352.98939478 -215.87973242 352.88774812 -210.4140625 352.86328125 C-209.21515381 352.86199219 -208.01624512 352.86070312 -206.78100586 352.859375 C-199.2308173 352.77930407 -191.93284874 352.21363255 -184.4765625 351.05078125 C-165.84439391 348.17295812 -149.55454685 347.39823566 -133.5390625 358.80078125 C-118.94676308 370.56751606 -108.82198613 387.82701036 -102.9140625 405.55078125 C-96.24086962 405.87935581 -90.63998832 404.70326464 -84.2265625 402.92578125 C-83.21907959 402.65507812 -82.21159668 402.384375 -81.17358398 402.10546875 C-73.72788101 400.09119482 -66.31666382 397.95846746 -58.91040039 395.80444336 C-51.17735646 393.57603218 -43.3807453 391.64524552 -35.56567383 389.72827148 C-29.22345048 388.16126091 -22.96606551 386.43248288 -16.72143555 384.51757812 C-8.53195937 382.05457777 -0.20295173 380.10821324 8.11621094 378.13696289 C15.04333117 376.45788282 21.56008382 374.42767036 28.0859375 371.55078125 C27.53333122 365.64521774 26.26503054 360.55886252 24.2734375 354.98828125 C21.4916107 346.92666074 19.054827 338.85591515 17.0859375 330.55078125 C16.90716064 329.82375 16.72838379 329.09671875 16.54418945 328.34765625 C14.97111663 321.39670639 14.75282042 314.65955124 14.7734375 307.55078125 C14.74926758 305.88402344 14.74926758 305.88402344 14.72460938 304.18359375 C14.71668274 290.70830974 18.53255784 281.05791765 27.9609375 271.42578125 C30.55027596 268.92961974 33.21960656 266.56509642 35.9609375 264.23828125 C45.5751863 255.86822935 52.32153937 246.78231035 58.0859375 235.55078125 C58.55773437 234.64714844 59.02953125 233.74351562 59.515625 232.8125 C74.25436747 202.64842768 74.4693156 163.84763473 68.0859375 131.55078125 C65.25411951 131.55078125 64.58995672 132.84604119 62.5859375 134.80078125 C55.27128591 141.27497018 47.97631812 143.29079555 38.2578125 142.92578125 C29.02052959 141.83368869 22.22778788 137.43159193 16.0859375 130.55078125 C10.36068869 122.35233427 9.23347769 114.43437329 10.0859375 104.55078125 C12.05114784 95.93890411 17.20016072 89.16009383 24.25390625 83.94921875 C29.583041 80.72344161 34.95486383 79.40836358 41.0859375 78.55078125 C33.45559262 69.3025409 24.51472562 62.21502051 14.8359375 55.23828125 C14.26987793 54.829729 13.70381836 54.42117676 13.12060547 54.00024414 C6.34625616 48.72688278 6.34625616 48.72688278 -1.4765625 46.67578125 C-3.15887484 47.27968824 -4.82544525 47.92867166 -6.4765625 48.61328125 C-14.67605661 50.84950692 -22.23318727 50.40069798 -29.65625 46.1640625 C-35.78501823 41.78485613 -40.48917435 36.0535109 -41.9140625 28.55078125 C-42.91299862 19.80728422 -42.12537765 12.79674086 -36.9140625 5.55078125 C-27.51841902 -4.98305182 -12.27909479 -7.24099443 0 0 Z " fill="#FBBA84" transform="translate(282.9140625,87.44921875)"/>
<path d="M0 0 C0.99644531 -0.01417969 1.99289063 -0.02835938 3.01953125 -0.04296875 C6.1875 0.1875 6.1875 0.1875 9.4375 1.20703125 C14.2064889 2.45392314 18.48291788 2.23680849 23.375 2.0625 C33.3458612 1.8860858 41.51780116 3.03825634 50 8.625 C51.051875 9.140625 52.10375 9.65625 53.1875 10.1875 C56.28760793 9.09842222 56.28760793 9.09842222 58.24609375 8.0078125 C63.97236984 5.58825922 71.21419334 6.83332546 76.8828125 8.94140625 C83.19774695 12.35575216 88.99632098 17.7222542 92.1875 24.1875 C92.06871951 27.63213409 91.8030744 30.12734409 90.0625 33.125 C87.00297541 34.8587306 84.61932475 34.60895216 81.1875 34.1875 C78.66978338 32.24526147 77.11294044 30.08964057 75.1875 27.5625 C72.19286022 24.00636526 70.42328297 23.32480922 65.8125 22.8125 C61.29566591 23.2797587 59.51650561 24.0804281 56.1875 27.1875 C54.97155235 29.73441738 54.0164935 32.2617392 53.14453125 34.9453125 C52.1875 37.1875 52.1875 37.1875 49.1875 39.1875 C45.17078119 39.79873982 43.64213177 39.49703652 40.25 37.1875 C38.10041714 34.06083402 37.89535916 33.68353749 38.3125 30.1875 C38.57870854 28.84885134 38.86907942 27.51469839 39.1875 26.1875 C39.4659375 24.7025 39.4659375 24.7025 39.75 23.1875 C39.894375 22.5275 40.03875 21.8675 40.1875 21.1875 C32.39767332 16.83968976 23.92605195 17.56231828 15.3125 18.875 C10.92635266 19.46728997 8.19212958 18.04149518 4.1875 16.1875 C-1.27504307 15.60222753 -5.01381665 16.52156481 -9.8125 19.1875 C-12.83009986 22.20509986 -14.8524346 25.0156887 -16.4375 28.9375 C-17.8125 32.1875 -17.8125 32.1875 -20.8125 34.1875 C-23.1171875 34.4609375 -23.1171875 34.4609375 -25.6875 34.5625 C-30.20376814 34.92512007 -32.61966537 35.78867604 -35.8125 39.1875 C-37.5760748 42.7146496 -37.04174693 46.17881351 -36.1875 49.9375 C-34.27076992 53.07396741 -32.27653489 53.16866621 -28.8125 54.1875 C-25.52826182 56.26508474 -24.03391962 57.31566026 -23.0625 61.140625 C-22.98 62.22859375 -22.8975 63.3165625 -22.8125 64.4375 C-22.10178431 70.24711176 -21.07907279 74.97950715 -16.8125 79.1875 C-11.4384982 82.93261182 -7.75535007 83.64281154 -1.3125 83.5625 C7.75395536 83.73384072 7.75395536 83.73384072 11.625 87.1875 C12.470625 88.1775 13.31625 89.1675 14.1875 90.1875 C17.89037713 92.03893856 22.14655388 91.6578092 26.1875 91.1875 C28.9462207 89.97608572 31.04627825 88.32872175 33.1875 86.1875 C37.71896892 85.71547199 40.4247686 86.13902667 44.5 88.1875 C50.25909517 90.9252702 55.41447111 91.1755272 61.57421875 89.5625 C69.95722914 86.37439418 74.43569884 80.06628245 78.1875 72.1875 C81.1875 70.1875 81.1875 70.1875 84.6875 70.375 C89.15817392 71.41283502 89.15817392 71.41283502 91.1875 74.1875 C91.296875 76.34375 91.296875 76.34375 90.9375 78.6875 C90.77507812 79.84765625 90.77507812 79.84765625 90.609375 81.03125 C90.1875 83.1875 90.1875 83.1875 89.1875 86.1875 C90.41256898 86.84107278 91.64279516 87.48498233 92.875 88.125 C93.55949219 88.48464844 94.24398437 88.84429687 94.94921875 89.21484375 C103.5534982 92.95387618 115.02167966 92.46343855 123.625 89.125 C131.85374159 85.18759139 138.37028686 79.57713033 142.1875 71.1875 C143.29581036 67.82668838 144.28899199 64.46372713 145.1953125 61.04296875 C146.17707117 58.21751367 146.7774122 56.90814948 149.1875 55.1875 C153.01290234 54.70063061 155.27227323 54.64775088 158.625 56.625 C161.01945199 60.55190127 160.95439943 63.70613983 160.1875 68.1875 C155.81609284 82.1760029 147.42711073 93.75952856 134.8515625 101.375 C133.1875 102.1875 133.1875 102.1875 131.1875 102.1875 C131.31125 103.095 131.435 104.0025 131.5625 104.9375 C131.53147945 112.58406656 126.57702763 120.0968747 121.5625 125.5625 C112.92563542 133.53371028 102.88124661 136.58175672 91.3828125 136.46875 C83.75310581 135.79718658 77.15755591 132.57481762 70.94140625 128.23828125 C69.03490883 127.09608124 67.34121573 126.68232891 65.1875 126.1875 C66.16591496 129.45855868 67.14536149 132.72930757 68.125 136 C68.40279297 136.92876953 68.68058594 137.85753906 68.96679688 138.81445312 C69.36801758 140.1534668 69.36801758 140.1534668 69.77734375 141.51953125 C70.02347412 142.34171143 70.26960449 143.1638916 70.52319336 144.01098633 C71.05229919 145.74453226 71.61433907 147.46801722 72.1875 149.1875 C72.73258569 153.87881123 72.63584676 157.29080648 70.5 161.5625 C67.47783988 164.99306013 64.94271743 166.94786444 60.34423828 167.57568359 C59.32571777 167.57906738 58.30719727 167.58245117 57.2578125 167.5859375 C56.13246094 167.58980469 55.00710937 167.59367188 53.84765625 167.59765625 C52.09775391 167.58025391 52.09775391 167.58025391 50.3125 167.5625 C49.15363281 167.57410156 47.99476563 167.58570313 46.80078125 167.59765625 C38.83165999 167.57033355 33.51155218 167.29413598 27.5 161.67578125 C24.28999998 157.41282779 22.82632097 152.39461125 21.1875 147.375 C20.84428711 146.35615723 20.50107422 145.33731445 20.14746094 144.28759766 C18.13199104 138.24592802 16.2258256 132.17510217 14.4375 126.0625 C14.23882324 125.38372803 14.04014648 124.70495605 13.83544922 124.00561523 C12.91586444 120.82515783 12.0499153 117.64057237 11.2421875 114.4296875 C9.55584666 107.55066891 9.55584666 107.55066891 5.4375 102 C1.14446786 99.52040385 -3.85209128 99.50733306 -8.68652344 99.04833984 C-18.99264316 97.93474477 -25.7678829 93.06948514 -32.25390625 85.140625 C-32.76824219 84.49609375 -33.28257812 83.8515625 -33.8125 83.1875 C-34.4725 82.5275 -35.1325 81.8675 -35.8125 81.1875 C-36.46734375 81.47625 -37.1221875 81.765 -37.796875 82.0625 C-44.63460678 84.84395022 -51.42044013 86.68128922 -58.8125 85.1875 C-61.67896579 82.89723257 -62.67856271 81.88695032 -63.375 78.25 C-62.5887729 73.96943021 -61.37742451 72.68294716 -57.8125 70.1875 C-55.28254344 69.72865597 -52.82879399 69.56022078 -50.26171875 69.43359375 C-47.00348152 69.10621106 -44.59008145 67.86866772 -41.8125 66.1875 C-42.699375 65.23875 -43.58625 64.29 -44.5 63.3125 C-49.79523702 57.06135321 -53.84655316 50.2507353 -53.35546875 41.8359375 C-51.72493337 33.88267857 -47.85233711 26.8028727 -41.03125 22.27734375 C-38.57719433 21.07191852 -36.20622769 20.37564677 -33.5625 19.6875 C-29.48727742 18.62303164 -29.48727742 18.62303164 -26.625 15.4375 C-26.026875 14.365 -25.42875 13.2925 -24.8125 12.1875 C-18.12212221 4.15904666 -10.46569716 0.06717392 0 0 Z " fill="#030101" transform="translate(171.8125,223.8125)"/>
<path d="M0 0 C2.84005577 1.99571487 3.81049534 3.41979852 4.88671875 6.71484375 C5.04059842 11.17735413 3.07305613 13.5245672 0.5 16.9375 C-11.67647268 34.18127995 -16.69795114 52.17772338 -18.8347168 73.01391602 C-19.77290955 81.53774839 -21.36706021 89.54474957 -26.21484375 96.82421875 C-27.46889762 100.29938297 -26.92367286 103.51542148 -26 107 C-24.71349126 109.40710409 -23.43933537 111.56121009 -21.9375 113.8125 C-18.1765056 119.95471571 -16.40792787 124.82477081 -18 132 C-22.0102951 144.94043678 -34.00843245 155.52530409 -44 164 C-45.52243582 165.33150328 -47.04339329 166.6646998 -48.5625 168 C-49.20316406 168.556875 -49.84382813 169.11375 -50.50390625 169.6875 C-52.86351476 171.62999606 -52.86351476 171.62999606 -53.375 174.8125 C-53.2987236 178.06799056 -53.2987236 178.06799056 -51.125 180.125 C-48.41701947 181.74978832 -45.99602371 182.82692014 -43.0625 183.9375 C-37.9817336 185.86834267 -33.74227296 188.04967018 -30.87890625 192.8984375 C-29.30269656 196.66733 -29.17545976 200.00748935 -30 204 C-32.77905483 209.2687834 -36.06773933 213.61725485 -41 217 C-39.54814698 220.45388192 -37.68492432 222.31271797 -34.875 224.75 C-32.11992852 227.44986968 -30.40586498 229.19443041 -30.1875 233.125 C-31.18772376 237.89529795 -32.60360714 239.60360714 -36 243 C-35.13375 243.185625 -34.2675 243.37125 -33.375 243.5625 C-28.5401728 245.62177825 -25.34882455 249.30235089 -23 254 C-23.03478903 258.34862917 -23.51155394 262.08172142 -25.5625 265.9375 C-27.90557397 270.92926627 -27.86597653 275.9173414 -26.37890625 281.2109375 C-23.63479578 287.57727378 -18.70351571 291.28843833 -12.5234375 294.14453125 C-7.19347304 295.43861353 -1.96566992 295.33696687 3.5 295.3125 C4.69890869 295.31121094 5.89781738 295.30992187 7.13305664 295.30859375 C14.6832452 295.22852282 21.98121376 294.6628513 29.4375 293.5 C48.06966859 290.62217687 64.35951565 289.84745441 80.375 301.25 C93.74360066 312.02998567 101.27324033 325.87188471 108.23828125 341.25 C110.59279826 347.02272142 110.59279826 347.02272142 115 351 C122.51762694 350.92496391 129.51398411 349.26815617 136.6875 347.1875 C150.9226539 343.20278119 165.25897785 339.65042074 179.60946655 336.10726929 C190.44880623 333.43056987 201.27146832 330.73674332 212.00549316 327.66000366 C216.96870368 326.24508512 221.96310591 325.05930212 227 323.9375 C238.42065948 321.82876534 238.42065948 321.82876534 247 315 C247.59834074 310.21327412 246.7543465 307.04790364 245 302.5625 C243.12372784 297.66670742 242.17631893 294.21664676 243 289 C245.0625 286.4375 245.0625 286.4375 248 285 C251.625 285 251.625 285 255 286 C258.05817281 289.189458 259.29243495 293.06076403 260.625 297.1875 C260.94984375 298.1933313 260.94984375 298.1933313 261.28125 299.21948242 C264.09848646 308.22442225 265.11741344 315.21335482 261 324 C255.36416245 332.63963488 247.46449655 335.94205938 237.75268555 338.33081055 C236.96893051 338.53151657 236.18517548 338.7322226 235.37767029 338.93901062 C232.79947817 339.59695885 230.21821017 340.24184885 227.63671875 340.88671875 C225.80365025 341.35186689 223.97079394 341.81785194 222.13813782 342.28462219 C217.30226589 343.51399942 212.46370301 344.73243268 207.62445068 345.94842529 C201.88701584 347.39223332 196.15284747 348.84894711 190.41824532 350.30395699 C185.72157428 351.49507974 181.02405945 352.68261959 176.32443237 353.86203003 C167.49534744 356.08041665 158.68111724 358.33722693 149.89306641 360.71337891 C147.53247425 361.34502276 145.17158404 361.97554082 142.81061745 362.60578346 C140.67040897 363.18318792 138.53592892 363.77892188 136.40104675 364.37565613 C126.89060214 366.95744695 115.94962695 369.42102501 106.5 365.4375 C98.67384003 360.65117663 95.22869917 352.83964264 91.625 344.75 C86.77731385 334.24640453 81.76814354 324.82023613 73 317 C72.2575 316.319375 71.515 315.63875 70.75 314.9375 C57.38193875 305.51909321 43.3823711 307.75020067 28 310 C7.6686091 312.7938917 -12.32616163 315.36597056 -30.1875 303.125 C-39.03811747 295.98355866 -42.85690108 287.70025292 -44.3515625 276.32421875 C-44.57669222 269.90802174 -42.93981554 264.07347008 -41 258 C-42.093125 257.5875 -43.18625 257.175 -44.3125 256.75 C-47.5218407 255.37549449 -49.24837663 254.11399711 -51 251 C-52.74448199 245.76655404 -52.67853621 240.12042565 -51 234.875 C-50.67 234.25625 -50.34 233.6375 -50 233 C-50.7425 232.484375 -51.485 231.96875 -52.25 231.4375 C-55.92001957 228.18452811 -58.50486925 224.84425111 -59.3515625 219.98046875 C-59.55154294 215.22638823 -58.69514963 211.87427759 -56 208 C-53.97949254 206.34058725 -51.91933132 204.84197302 -49.7421875 203.39453125 C-47.70615044 202.02348757 -47.70615044 202.02348757 -47 199 C-47.78375 198.95875 -48.5675 198.9175 -49.375 198.875 C-55.97815364 197.28113533 -62.01164431 193.85887508 -66.0625 188.3125 C-68.77019573 183.68321375 -69.18224865 180.48904309 -69.25 175.1875 C-69.27578125 173.98480469 -69.3015625 172.78210938 -69.328125 171.54296875 C-68.64616567 164.17943172 -64.23033974 158.72351058 -58.734375 154.08984375 C-55.47467714 151.49508426 -52.20302593 148.91786423 -48.890625 146.390625 C-44.54826099 142.88199488 -41.15860647 138.92123839 -37.875 134.4375 C-37.45984131 133.89520752 -37.04468262 133.35291504 -36.61694336 132.79418945 C-35.29563088 130.9996186 -35.29563088 130.9996186 -34 128 C-34.775385 123.79380194 -36.69282602 120.62131587 -39 117.0625 C-43.50407211 109.67317876 -45.03535186 103.46893532 -43 95 C-42.08191646 92.87796259 -41.11925201 90.77493457 -40.125 88.6875 C-36.63646076 81.03763181 -35.72912708 73.60333317 -34.69921875 65.31640625 C-31.84081491 42.51929508 -24.04267399 18.10922295 -8 1 C-5.15916359 -0.42041821 -3.14522722 -0.31452272 0 0 Z " fill="#010101" transform="translate(69,145)"/>
<path d="M0 0 C8.62806488 6.17723582 13.68513174 14.1362251 15.6640625 24.55859375 C16.8452718 34.13951361 13.89605984 42.77478862 8.3203125 50.5234375 C3.29384743 56.69982501 -2.50644598 60.74630573 -10.3359375 62.55859375 C-20.95306159 63.61491676 -30.20167338 63.09687927 -39.0234375 56.5703125 C-44.25217969 52.16996115 -48.03804565 48.02475453 -50.3359375 41.55859375 C-50.7484375 40.44484375 -51.1609375 39.33109375 -51.5859375 38.18359375 C-53.70125742 27.95954745 -52.14353822 18.67995104 -46.5859375 9.80859375 C-35.94772862 -4.93924105 -15.90094158 -9.81178502 0 0 Z " fill="#010101" transform="translate(422.3359375,60.44140625)"/>
<path d="M0 0 C1.17755859 -0.03673828 1.17755859 -0.03673828 2.37890625 -0.07421875 C6.34767247 -0.09429683 8.41684743 0.10152909 11.8984375 2.1796875 C13.875 4.375 13.875 4.375 14.375 7.875 C13.84101676 11.61288271 13.61269107 12.85415574 10.875 15.375 C8.08197945 15.75952471 5.60689407 15.92603891 2.8125 15.9375 C-10.28957547 16.38649365 -19.66366921 19.83563853 -29.1875 29.25 C-29.826875 29.95125 -30.46625 30.6525 -31.125 31.375 C-31.62 31.87 -31.62 31.87 -32.125 32.375 C-35.46289006 32.05404903 -38.40896618 31.68187164 -41.50390625 30.35546875 C-47.83795283 27.9861011 -55.12946422 28.69515889 -61.4375 30.875 C-69.13222965 34.42641368 -72.73401707 39.96546322 -75.75 47.6875 C-76.09289062 48.69425781 -76.43578125 49.70101562 -76.7890625 50.73828125 C-78.73447548 54.57791213 -81.32182864 55.76315191 -85.30078125 57.11328125 C-86.00589844 57.30277344 -86.71101563 57.49226563 -87.4375 57.6875 C-96.31079095 60.56173876 -101.76239367 66.26686653 -106.125 74.375 C-109.04161766 81.26882356 -109.53099624 90.08053451 -107.19140625 97.2265625 C-106.46050538 98.90080601 -105.71897109 100.57046414 -104.96484375 102.234375 C-103.73875697 105.3594706 -104.00990425 107.23879321 -105.125 110.375 C-106.38256602 112.75913558 -107.74976377 115.05428887 -109.125 117.375 C-111.59821305 125.08185099 -110.57896622 132.22583173 -107.03125 139.30859375 C-105.6369069 142.48793641 -105.59227752 144.9788942 -106.125 148.375 C-107.75 150.8125 -107.75 150.8125 -110.125 152.375 C-113.0625 152.9375 -113.0625 152.9375 -116.125 152.375 C-122.99174607 146.55319355 -125.48757917 138.49634664 -126.578125 129.734375 C-126.79516398 122.69611084 -125.69303528 117.18388003 -123.0234375 110.69921875 C-121.36223767 106.40176703 -121.84076171 103.33430422 -123.125 99 C-126.26494736 87.12280781 -124.69186038 74.23135635 -118.546875 63.66015625 C-112.20532705 54.16211709 -103.97880924 45.27074706 -92.5 42.5 C-91.324375 42.438125 -91.324375 42.438125 -90.125 42.375 C-89.815625 41.09625 -89.50625 39.8175 -89.1875 38.5 C-85.86574733 28.55041063 -76.78609122 21.29328895 -68 16.125 C-59.3665682 11.9249521 -48.65169472 12.3225701 -39.37109375 14.08984375 C-36.16959469 14.67640775 -36.16959469 14.67640775 -33.859375 13.1171875 C-32.87710938 12.19292969 -32.87710938 12.19292969 -31.875 11.25 C-22.78900441 3.48193892 -11.83713413 0.0196304 0 0 Z " fill="#040302" transform="translate(200.125,140.625)"/>
<path d="M0 0 C8.34468007 4.97590182 13.53387008 11.86345977 16.109375 21.2578125 C17.10789012 32.35758522 16.45884702 41.9922991 9.359375 51.0703125 C3.68970122 57.1408723 -3.36319277 60.85433149 -11.66015625 61.59375 C-19.4412515 61.76746925 -26.16911331 61.58646603 -32.890625 57.2578125 C-33.59703125 56.82210937 -34.3034375 56.38640625 -35.03125 55.9375 C-41.93709584 51.25687115 -45.68778524 45.25759899 -47.890625 37.2578125 C-48.88914012 26.15803978 -48.24009702 16.5233259 -41.140625 7.4453125 C-30.84272373 -3.5807232 -13.59449082 -6.52353083 0 0 Z " fill="#010101" transform="translate(328.890625,23.7421875)"/>
<path d="M0 0 C7.29503109 5.02077097 12.66336542 11.41184306 15 20 C16.0156633 31.39668703 15.10965574 40.15568856 7.75 49.25 C1.0819703 56.40245921 -6.4380996 59.94355473 -16.25 60.375 C-25.31537952 60.16359883 -32.74311651 57.1295522 -39.28125 50.859375 C-46.85769026 42.66304418 -48.59315253 34.93608488 -48.30859375 23.91796875 C-47.61596483 15.12421165 -43.37156311 8.93125184 -37 3 C-25.86480815 -5.63634959 -12.45134203 -6.42406114 0 0 Z " fill="#010101" transform="translate(484,112)"/>
<path d="M0 0 C7.22303196 5.01106376 12.97488341 12.02598916 14.87890625 20.74609375 C15.8645296 30.39894463 14.28224487 38.77542178 8.5703125 46.67578125 C2.78299003 53.75957088 -4.11053784 58.02246417 -13.30078125 59.12890625 C-23.12616138 59.47568437 -30.34255846 57.32401168 -37.93359375 51.05859375 C-44.24972545 45.06665288 -47.61196727 38.64695314 -48.359375 29.984375 C-48.63536268 19.10465027 -45.85424843 11.65821038 -38.34375 3.7265625 C-27.59611711 -5.84997507 -12.45943838 -7.36552435 0 0 Z " fill="#040302" transform="translate(341.12109375,171.25390625)"/>
<path d="M0 0 C3.58598889 2.54054385 6.15992797 5.04327701 8.4921875 8.765625 C8.90210938 9.38695312 9.31203125 10.00828125 9.734375 10.6484375 C13.58244889 17.62804738 13.74273274 26.02607545 12.4921875 33.765625 C10.09120579 41.34186763 6.27912589 47.51322792 -0.5078125 51.765625 C-1.12914062 52.17554688 -1.75046875 52.58546875 -2.390625 53.0078125 C-9.37023488 56.85588639 -17.76826295 57.01617024 -25.5078125 55.765625 C-33.08405513 53.36464329 -39.25541542 49.55256339 -43.5078125 42.765625 C-43.91773438 42.14429688 -44.32765625 41.52296875 -44.75 40.8828125 C-48.59807389 33.90320262 -48.75835774 25.50517455 -47.5078125 17.765625 C-45.10683079 10.18938237 -41.29475089 4.01802208 -34.5078125 -0.234375 C-33.88648438 -0.64429688 -33.26515625 -1.05421875 -32.625 -1.4765625 C-22.455808 -7.08315125 -9.72162164 -5.63801363 0 0 Z " fill="#000000" transform="translate(499.5078125,4.234375)"/>
<path d="M0 0 C2.15625 1.3828125 2.15625 1.3828125 4 4 C4.59567829 7.48331105 4.5173582 10.9124549 4.4375 14.4375 C4.42428711 15.45577881 4.41107422 16.47405762 4.39746094 17.52319336 C3.419353 59.67638531 -14.55716633 91.891554 -44 121 C-47.12297811 123.86287639 -50.31784747 126.62987306 -53.57421875 129.33984375 C-59.2469912 135.56071016 -59.36164603 142.10471126 -59 150.1875 C-58.52206572 161.0127115 -58.52206572 161.0127115 -62 165 C-65.3125 166.125 -65.3125 166.125 -69 166 C-71.8744393 164.34985892 -73.16872323 163.57368627 -75 161 C-75.75137608 158.0481654 -75.96710172 155.98904372 -76 153 C-76.06058594 151.95328125 -76.12117188 150.9065625 -76.18359375 149.828125 C-76.58706524 138.82435697 -75.23140783 129.15092336 -67.75 120.6875 C-66.18607745 119.10557176 -64.60297841 117.54233943 -63 116 C-62.278125 115.25621094 -61.55625 114.51242187 -60.8125 113.74609375 C-58.12592098 110.98319146 -55.47755221 108.37272368 -52.4375 106 C-48.83744009 103.04610469 -45.9983247 99.55034184 -43 96 C-42.21109375 95.09894531 -41.4221875 94.19789063 -40.609375 93.26953125 C-20.49605518 69.91710318 -12.91057001 44.82815738 -11.94580078 14.37939453 C-11.50048158 4.7623947 -11.50048158 4.7623947 -8.625 1.71875 C-5.38600613 -0.4020198 -3.79774959 -0.72722864 0 0 Z " fill="#020201" transform="translate(378,246)"/>
<path d="M0 0 C7.22538503 4.30603754 11.61183794 10.13263188 14.4375 18 C15.58377924 27.37083278 15.35041227 36.25894094 9.4375 44 C4.17173342 49.79454649 -1.46288906 53.49851854 -9.39453125 54.46875 C-18.96468152 54.54388366 -26.27935606 53.80103194 -33.6171875 47.1328125 C-40.09535088 40.22456359 -42.12992353 33.50211038 -42.04296875 24.06860352 C-41.74395838 15.54582427 -38.83865527 9.83070397 -32.6875 4.0625 C-23.90268227 -3.41745987 -10.46364874 -4.75036814 0 0 Z " fill="#000000" transform="translate(409.5625,148)"/>
<path d="M0 0 C7.22538503 4.30603754 11.61183794 10.13263188 14.4375 18 C15.58377924 27.37083278 15.35041227 36.25894094 9.4375 44 C4.28237905 49.67278999 -1.07922236 53.56683308 -8.796875 54.3125 C-18.65022672 54.65081251 -25.10131853 52.9378806 -32.8125 46.875 C-39.34372589 40.68339786 -41.84355551 34.47876144 -42.1875 25.5 C-41.84057097 16.44332626 -39.31202649 10.26171642 -32.6875 4.0625 C-23.90268227 -3.41745987 -10.46364874 -4.75036814 0 0 Z " fill="#010100" transform="translate(349.5625,99)"/>
<path d="M0 0 C5.20452661 3.86928289 9.72731689 9.06949278 11.0859375 15.55078125 C11.88811143 23.4477379 12.2469249 30.83156062 7.69921875 37.62109375 C1.99772502 44.44079812 -3.82196705 48.79981657 -12.734375 49.8984375 C-21.21131568 50.32120053 -27.59147798 48.37586076 -33.984375 42.71875 C-40.78774184 35.50262659 -42.58653207 28.64713959 -42.32421875 18.8046875 C-41.47093681 12.03531741 -38.54031985 6.7194054 -33.5390625 2.11328125 C-23.74145299 -5.24534887 -10.78298237 -6.35873545 0 0 Z " fill="#020201" transform="translate(282.9140625,87.44921875)"/>
<path d="M0 0 C0.82122849 -0.00807175 1.64245697 -0.01614349 2.48857117 -0.02445984 C4.20695966 -0.03817259 5.92537393 -0.04895083 7.64379883 -0.05688477 C9.39811201 -0.06850057 11.15238733 -0.08910022 12.90649414 -0.1184082 C15.45873685 -0.1609337 18.00994789 -0.17721996 20.5625 -0.1875 C21.73598747 -0.21376213 21.73598747 -0.21376213 22.93318176 -0.24055481 C26.49261307 -0.22631797 28.54049296 -0.06389004 31.44213867 2.08129883 C33.51447824 5.04729917 33.52874606 6.68867649 32.94921875 10.23828125 C31.3659668 12.89428711 31.3659668 12.89428711 28.94921875 15.23828125 C25.67895508 15.83422852 25.67895508 15.83422852 21.78125 15.8046875 C21.07758804 15.80869064 20.37392609 15.81269379 19.64894104 15.81681824 C18.13835864 15.82514799 16.62769545 15.82359347 15.11712646 15.81311035 C11.14209988 15.79230355 7.16940458 15.86445934 3.1953125 15.9453125 C2.40235779 15.96117401 1.60940308 15.97703552 0.79241943 15.99337769 C-29.28170273 16.75495925 -59.06143201 26.57871509 -84.05078125 43.23828125 C-87.43161149 43.77209655 -88.84412181 43.35309205 -91.86328125 41.67578125 C-94.05078125 39.23828125 -94.05078125 39.23828125 -94.67578125 35.80078125 C-93.75079815 30.52837757 -90.57853324 28.34595671 -86.3515625 25.28125 C-60.68076115 9.34186354 -30.25718853 0.28944146 0 0 Z " fill="#010100" transform="translate(178.05078125,93.76171875)"/>
<path d="M0 0 C4.30757797 2.42343927 6.86896719 4.78270886 9.625 8.875 C10.223125 9.761875 10.82125 10.64875 11.4375 11.5625 C13.87550618 18.36325409 13.53186653 24.6972562 10.5 31.25 C6.76413166 37.87172169 1.97554188 41.58548695 -5.375 43.875 C-12.27360077 44.82761407 -17.52814062 44.11603918 -23.4375 40.359375 C-29.08345604 36.03384417 -32.74311561 30.45095397 -33.73046875 23.30078125 C-34.09053244 16.32333087 -32.6357383 11.42178791 -28.375 5.875 C-20.53388238 -2.53370522 -10.4692597 -4.84398583 0 0 Z " fill="#030202" transform="translate(254.375,154.125)"/>
<path d="M0 0 C5.62190491 3.35174881 9.56334243 8.22193737 11.5625 14.4375 C12.39974732 22.04087387 12.40834412 29.2172498 7.5625 35.4375 C3.20249624 40.05579782 -1.03859132 43.06322837 -7.48828125 43.7734375 C-15.45060136 43.86879463 -21.30139244 43.42555897 -27.18359375 37.75390625 C-33.07231681 31.18734456 -34.06696373 25.96506267 -33.81640625 17.1484375 C-33.14563829 10.57906052 -30.21445121 6.8691814 -25.4375 2.5625 C-18.1456866 -2.60253449 -8.29783989 -3.73242605 0 0 Z " fill="#000000" transform="translate(431.4375,220.5625)"/>
<path d="M0 0 C5.62190491 3.35174881 9.56334243 8.22193737 11.5625 14.4375 C12.39974732 22.04087387 12.40834412 29.2172498 7.5625 35.4375 C3.20249624 40.05579782 -1.03859132 43.06322837 -7.48828125 43.7734375 C-15.45060136 43.86879463 -21.30139244 43.42555897 -27.18359375 37.75390625 C-33.07231681 31.18734456 -34.06696373 25.96506267 -33.81640625 17.1484375 C-33.14563829 10.57906052 -30.21445121 6.8691814 -25.4375 2.5625 C-18.1456866 -2.60253449 -8.29783989 -3.73242605 0 0 Z " fill="#000000" transform="translate(235.4375,35.5625)"/>
<path d="M0 0 C4.0291761 2.41282057 6.19265721 5.99189897 8.015625 10.20703125 C9.00319896 16.95928108 8.00191186 22.63397001 4.015625 28.20703125 C-1.10231653 33.0690757 -5.40850759 34.73385595 -12.3828125 34.58984375 C-17.94996078 33.77065376 -21.68707942 30.6041188 -25.421875 26.58203125 C-28.76842149 21.49528059 -28.5620449 16.09926425 -27.984375 10.20703125 C-26.22585317 4.50772557 -22.0280799 1.03899548 -16.984375 -1.79296875 C-10.69221664 -3.89035487 -5.80468065 -2.79374936 0 0 Z " fill="#F7F5F4" transform="translate(413.984375,73.79296875)"/>
<path d="M0 0 C6.93 0.495 6.93 0.495 14 1 C12.71741641 9.16189559 10.82506609 17.37625318 4.625 23.25 C2.70939068 24.91494361 2.70939068 24.91494361 3 27.5625 C3.88507816 30.60495617 4.93241612 33.48064969 6.0625 36.4375 C7.75817882 40.91849963 8.42255868 44.24621486 8 49 C8.99 49.33 9.98 49.66 11 50 C10.05125 50.268125 9.1025 50.53625 8.125 50.8125 C4.74732727 51.74986588 4.74732727 51.74986588 3 55 C2.40595268 57.03271169 1.84775325 59.07602148 1.3125 61.125 C-1.61803941 70.84660489 -7.24903395 77.831117 -16 83 C-21.27356742 85.6245196 -26.00059541 87.63151627 -32 87 C-29.27044844 84.10730283 -26.53430101 81.94707388 -23.1875 79.8125 C-14.48254788 73.77023912 -8.50981345 65.36130952 -6 55 C-4.9103491 45.61208707 -4.56323571 35.53286342 -9.02734375 26.97265625 C-10.23360735 24.52621804 -10.8544223 22.74102003 -11 20 C-9.453125 17.421875 -9.453125 17.421875 -7.25 14.75 C-3.48849726 9.9034484 -1.54978234 5.90854517 0 0 Z " fill="#DA4A55" transform="translate(315,229)"/>
<path d="M0 0 C5.2287958 2.56506964 9.3776477 6.7552954 12 12 C12.53749296 16.89911617 12.56674874 20.8447045 10.375 25.3125 C2.98730894 33.67225567 2.98730894 33.67225567 -2.171875 34.23828125 C-8.02806674 34.40686859 -11.43413294 34.03495229 -16 30 C-20.84747929 24.83638076 -22.36835159 21.56298385 -22.27734375 14.53515625 C-21.71443474 9.38969224 -18.61635041 6.41533173 -14.875 3.1875 C-9.97459223 -0.54107113 -6.05028932 -0.66189606 0 0 Z " fill="#F6F4F4" transform="translate(318,36)"/>
<path d="M0 0 C4.78136105 2.67011072 8.09135786 5.83934438 9.79296875 11.11328125 C10.73644444 16.10022419 10.22133242 19.98841484 7.73046875 24.42578125 C4.51506721 28.93815148 1.10441384 31.48679164 -4.375 32.5234375 C-9.57745899 32.87265592 -13.24349017 31.67263088 -17.4765625 28.65625 C-20.94685258 25.56197329 -22.79880279 22.51162343 -23.58203125 17.91015625 C-23.87852414 12.4620994 -22.84630453 8.24462529 -19.20703125 4.11328125 C-13.52004724 -0.95750584 -7.25464509 -2.91469811 0 0 Z " fill="#F6F4F4" transform="translate(331.20703125,182.88671875)"/>
<path d="M0 0 C5.01791684 2.41935276 8.49958655 5.9991731 11 11 C11.54360446 15.95482094 11.56437074 19.87125852 9.3125 24.375 C5.95320991 28.18824821 2.64139223 31.64239613 -2.5390625 32.34375 C-8.30762796 32.63582926 -12.12047984 32.6252122 -16.625 28.75 C-20.52336852 24.90097791 -22.28910552 21.63942545 -22.375 16.125 C-22.26166873 11.30133778 -21.2596427 8.68854306 -18 5 C-17.175 4.05125 -16.35 3.1025 -15.5 2.125 C-11.03694954 -1.39306784 -5.34974796 -0.79364393 0 0 Z " fill="#F7F5F5" transform="translate(473,124)"/>
<path d="M0 0 C3.22930528 1.89556109 3.85813842 3.41824028 4.81298828 6.97827148 C4.98169434 7.70602783 5.15040039 8.43378418 5.32421875 9.18359375 C5.7284705 10.72804697 6.13343932 12.27231265 6.5390625 13.81640625 C6.73870605 14.61079102 6.93834961 15.40517578 7.14404297 16.22363281 C8.12513704 20.03167385 9.25985934 23.79166371 10.38671875 27.55859375 C10.79991918 28.96731893 11.21269419 30.37616897 11.625 31.78515625 C12.7930648 35.75286844 14.01940611 39.70172005 15.28125 43.640625 C15.76171875 45.62109375 15.76171875 45.62109375 15.76171875 49.62109375 C10.15171875 49.62109375 4.54171875 49.62109375 -1.23828125 49.62109375 C-2.91494712 44.66031628 -4.5886861 39.69873353 -6.25537109 34.73461914 C-6.82207934 33.04949265 -7.39040851 31.36491031 -7.96044922 29.6809082 C-8.78399374 27.24705288 -9.60150534 24.81123858 -10.41796875 22.375 C-10.67013153 21.63399551 -10.92229431 20.89299103 -11.18209839 20.12953186 C-12.8854795 15.0209961 -14.16358367 9.89692155 -15.23828125 4.62109375 C-13.37452654 3.72239002 -11.49662308 2.85299137 -9.61328125 1.99609375 C-8.56914062 1.50882812 -7.525 1.0215625 -6.44921875 0.51953125 C-3.23828125 -0.37890625 -3.23828125 -0.37890625 0 0 Z " fill="#DD626C" transform="translate(212.23828125,326.37890625)"/>
<path d="M0 0 C4.36492736 2.40706674 5.93942071 4.83284673 7.8125 9.4375 C8.54520346 14.47483626 7.62027557 18.24512573 5.20703125 22.63671875 C1.89427009 26.91454198 -2.56531496 28.20982491 -7.75 28.9375 C-11.90567414 28.33303831 -15.0494453 27.21048398 -18.1875 24.4375 C-21.62339266 19.77883377 -23.03044428 15.23274192 -22.1875 9.4375 C-20.42898855 4.50534364 -17.74068059 1.40845153 -13.0390625 -0.90234375 C-8.34602817 -2.57559861 -4.45447532 -1.90552555 0 0 Z " fill="#F6F4F4" transform="translate(489.1875,16.5625)"/>
<path d="M0 0 C2.70850149 0.80566786 4.94651366 1.86506479 7.42578125 3.21484375 C16.58840501 7.87676522 25.53612069 8.27873424 35.61328125 8.77734375 C32.37397076 15.70507266 27.89465622 20.11684136 20.61328125 22.77734375 C12.65990732 24.03386637 7.42934566 21.61137998 0.61328125 17.77734375 C-4.65996731 15.14962698 -9.62639385 13.29080583 -15.44140625 12.26953125 C-17.38671875 11.77734375 -17.38671875 11.77734375 -20.38671875 9.77734375 C-20.38671875 9.11734375 -20.38671875 8.45734375 -20.38671875 7.77734375 C-19.33871094 7.36742187 -18.29070312 6.9575 -17.2109375 6.53515625 C-15.83195866 5.99106936 -14.45305639 5.44678837 -13.07421875 4.90234375 C-12.0387793 4.49822266 -12.0387793 4.49822266 -10.98242188 4.0859375 C-0.54060813 -0.05043316 -0.54060813 -0.05043316 0 0 Z " fill="#D64652" transform="translate(251.38671875,322.22265625)"/>
<path d="M0 0 C3.42484369 2.28322912 4.97163392 4.19326784 6.8125 7.875 C7.46503816 13.09530531 6.62991128 16.44763942 3.8125 20.875 C0.57203856 23.81166818 -2.12264935 24.77454239 -6.5 25.1875 C-10.94636282 24.81068959 -12.82698122 23.77726622 -16.1875 20.875 C-19.097872 16.509442 -19.8381249 13.07999921 -19.1875 7.875 C-14.90138553 -0.37973899 -8.93720649 -3.15430817 0 0 Z " fill="#F5F2F2" transform="translate(402.1875,162.125)"/>
<path d="M0 0 C3.42484369 2.28322912 4.97163392 4.19326784 6.8125 7.875 C7.46503816 13.09530531 6.62991128 16.44763942 3.8125 20.875 C0.57203856 23.81166818 -2.12264935 24.77454239 -6.5 25.1875 C-10.94636282 24.81068959 -12.82698122 23.77726622 -16.1875 20.875 C-19.097872 16.509442 -19.8381249 13.07999921 -19.1875 7.875 C-14.90138553 -0.37973899 -8.93720649 -3.15430817 0 0 Z " fill="#F5F2F2" transform="translate(342.1875,113.125)"/>
<path d="M0 0 C3.00839069 1.09396025 5.38885985 2.26188521 8.0625 4.0625 C11.35631969 6.03163134 14.00154836 6.24308244 17.8125 6.375 C23.62578609 6.65251868 27.18044577 8.37284965 31.94140625 11.625 C36.02065061 14.34965657 40.2419944 14.6178186 45 14 C46.72931123 13.3898116 48.43841479 12.71991496 50.125 12 C54.81106773 10.00289351 58.13699284 8.85049994 63.08203125 10.8359375 C64.6341652 11.53928951 66.18096445 12.25451404 67.72265625 12.98046875 C74.84615047 16.16954592 82.31160027 16.51306802 90 17 C86.39828682 20.60171318 82.12119504 21.16015791 77.1875 21.375 C72.48945446 21.30445878 69.25778492 19.96063453 65.09765625 17.90625 C61.89086923 16.52082246 59.42375422 16.47326858 56 17 C53.18900586 18.8312811 53.18900586 18.8312811 51 21 C47.29273244 22.85363378 43.04595205 22.45990853 39 22 C35.99131848 20.41360429 33.82845244 19.16264172 31.84765625 16.3828125 C28.86478031 14.15038526 25.45755161 14.68711507 21.875 14.6875 C15.50796917 14.48959945 10.8188946 13.93169221 5.671875 9.83203125 C2.9234398 6.82031137 1.49978056 3.78205532 0 0 Z " fill="#D54752" transform="translate(149,294)"/>
<path d="M0 0 C2.70552388 2.19823815 4.44778333 3.89556667 6 7 C6.12775695 11.64487751 5.59584636 15.10623046 3 19 C-0.96259813 21.64173209 -4.25444796 22.4260971 -9 22 C-12.58024504 20.30752053 -14.39236856 19.04954522 -16.375 15.625 C-17.50657833 10.872371 -17.60984796 8.13257478 -15.25 3.75 C-10.88976271 -1.57917891 -6.40440864 -1.80373719 0 0 Z " fill="#F4F2F2" transform="translate(273,100)"/>
<path d="M0 0 C3.32014381 3.83974191 3.51188007 6.45774162 3.3515625 11.3984375 C2.6205087 16.8082356 0.42534977 20.64591771 -3.5 24.375 C-9.04898582 27.98184079 -13.37592204 29.00004764 -20 28 C-23.63936318 26.40295482 -27.1797076 24.6405848 -29 21 C-28.29875 20.97421875 -27.5975 20.9484375 -26.875 20.921875 C-18.85233023 20.44225887 -13.42201815 18.87760617 -7.25 13.6875 C-3.87314237 9.65403116 -0.84971384 5.31071149 0 0 Z " fill="#EAE3E0" transform="translate(419,80)"/>
<path d="M0 0 C10.30102482 0.4237301 19.94296611 1.73181789 30 4 C30 7.3 30 10.6 30 14 C21.61433649 12.56245768 13.33536966 10.77564521 5.0390625 8.90234375 C2.03379317 8.22487533 -0.97498894 7.58451409 -4 7 C-2.68 4.69 -1.36 2.38 0 0 Z " fill="#FDBC85" transform="translate(211,102)"/>
<path d="M0 0 C3.35312908 3.86010086 3.51561063 6.56224608 3.34765625 11.53515625 C2.45793692 17.84316634 -2.2313801 21.37170225 -7 25 C-10.70539842 26.85269921 -14.95623313 26.46444489 -19 26 C-22.11326625 24.68882399 -24.45304576 23.09390848 -26 20 C-25.2265625 19.85304688 -24.453125 19.70609375 -23.65625 19.5546875 C-14.50527799 17.58405739 -8.24169185 14.81670559 -3.0625 6.8125 C-1.72302571 4.51042046 -0.84992806 2.54978418 0 0 Z " fill="#E9E2DF" transform="translate(327,44)"/>
<path d="M0 0 C3.35239322 3.85925373 3.51239351 6.56010965 3.3515625 11.53125 C2.6514276 16.44775282 -0.02230474 19.13869704 -3.625 22.3125 C-8.71543331 25.92938683 -13.90027225 25.73863891 -20 25 C-22.71655064 23.61675639 -23.95178802 22.33268587 -26 20 C-26 19.67 -26 19.34 -26 19 C-25.29875 18.91363281 -24.5975 18.82726562 -23.875 18.73828125 C-15.57547399 17.50913949 -9.2834463 15.38292689 -4.125 8.5 C-2.36454999 5.79115942 -1.02531526 3.07594578 0 0 Z " fill="#EAE3E0" transform="translate(481,131)"/>
<path d="M0 0 C2.70850149 0.80566786 4.94651366 1.86506479 7.42578125 3.21484375 C16.58840501 7.87676522 25.53612069 8.27873424 35.61328125 8.77734375 C34.62328125 10.75734375 33.63328125 12.73734375 32.61328125 14.77734375 C9.21991225 12.49506385 9.21991225 12.49506385 1.0625 7.0859375 C-1.27715284 5.55383878 -1.27715284 5.55383878 -3.7734375 5.9609375 C-4.63582031 6.23035156 -5.49820313 6.49976563 -6.38671875 6.77734375 C-7.48628906 7.09832031 -8.58585938 7.41929687 -9.71875 7.75 C-10.86730469 8.10964844 -12.01585937 8.46929687 -13.19921875 8.83984375 C-14.36066406 9.20207031 -15.52210938 9.56429688 -16.71875 9.9375 C-17.59917969 10.21464844 -18.47960937 10.49179687 -19.38671875 10.77734375 C-19.71671875 9.78734375 -20.04671875 8.79734375 -20.38671875 7.77734375 C-19.33871094 7.36742187 -18.29070312 6.9575 -17.2109375 6.53515625 C-15.83195866 5.99106936 -14.45305639 5.44678837 -13.07421875 4.90234375 C-12.0387793 4.49822266 -12.0387793 4.49822266 -10.98242188 4.0859375 C-0.54060813 -0.05043316 -0.54060813 -0.05043316 0 0 Z " fill="#D02E3A" transform="translate(251.38671875,322.22265625)"/>
<path d="M0 0 C3.11673962 2.84571878 3.8949384 4.92837169 4.3125 9.1875 C3.92707229 13.88971801 2.90241122 17.25206843 0 21 C-3.61585509 23.80013073 -7.06452345 24.86870504 -11.5625 25.5 C-15.956375 24.86089091 -18.33521065 23.49205676 -22 21 C-22.33 20.34 -22.66 19.68 -23 19 C-22.27554687 18.82984375 -21.55109375 18.6596875 -20.8046875 18.484375 C-12.81296731 16.48111714 -6.67328794 14.17683506 -2 7 C-1.14758445 4.67523032 -0.56916239 2.41894014 0 0 Z " fill="#E9E2DF" transform="translate(493,20)"/>
<path d="M0 0 C3.3737844 4.40058834 4.42013488 7.01069338 4.33984375 12.55078125 C3.65699361 17.47201157 1.11120464 21.14025398 -2.57421875 24.38671875 C-7.09961433 27.39310043 -11.69204299 27.83658018 -17 27 C-20.5625 25.5 -20.5625 25.5 -23 24 C-23 23.67 -23 23.34 -23 23 C-22.38253906 22.87625 -21.76507813 22.7525 -21.12890625 22.625 C-12.6395598 20.55757925 -6.72836385 16.26306851 -2 8.875 C-0.96926885 5.91164796 -0.37058221 3.1128906 0 0 Z " fill="#E8E2DF" transform="translate(337,188)"/>
<path d="M0 0 C1.84765625 0.03125 1.84765625 0.03125 4 1 C5.03600818 3.54827086 5.770449 5.85236969 6.4375 8.5 C6.86020886 10.0535129 7.28339988 11.60689466 7.70703125 13.16015625 C7.91924316 13.9608252 8.13145508 14.76149414 8.35009766 15.58642578 C9.37432373 19.39014439 10.50208113 23.16199345 11.625 26.9375 C12.0379487 28.34629899 12.45071528 29.75515138 12.86328125 31.1640625 C14.03134605 35.13177469 15.25768736 39.0806263 16.51953125 43.01953125 C17 45 17 45 17 49 C11.39 49 5.78 49 0 49 C-0.66 47.02 -1.32 45.04 -2 43 C1.96 43 5.92 43 10 43 C11.20113844 38.19544624 10.12475449 35.148959 8.69140625 30.5859375 C8.44583481 29.77508698 8.20026337 28.96423645 7.94725037 28.1288147 C7.16178729 25.54121453 6.36274062 22.9580643 5.5625 20.375 C4.76837962 17.78408925 3.97709437 15.19234809 3.1884613 12.59976196 C2.69699332 10.98709972 2.20186331 9.37554818 1.70277405 7.76522827 C0 2.21997961 0 2.21997961 0 0 Z " fill="#D24651" transform="translate(211,327)"/>
<path d="M0 0 C2.90636443 2.78000076 3.93152619 4.10984053 4.25 8.25 C3.92111455 13.1832818 2.69816447 16.46103845 -1 19.8125 C-5.01467641 22.19621412 -8.40879525 22.38908515 -13 22 C-18.53846154 18.92307692 -18.53846154 18.92307692 -20 16 C-19.02160156 15.74476563 -19.02160156 15.74476563 -18.0234375 15.484375 C-11.66657771 13.72170591 -6.21904855 12.06075662 -2.1875 6.5 C-1.14488188 4.30501448 -0.44095607 2.38116277 0 0 Z " fill="#E7E1DE" transform="translate(405,165)"/>
<path d="M0 0 C2.90636443 2.78000076 3.93152619 4.10984053 4.25 8.25 C3.92111455 13.1832818 2.69816447 16.46103845 -1 19.8125 C-5.01467641 22.19621412 -8.40879525 22.38908515 -13 22 C-18.53846154 18.92307692 -18.53846154 18.92307692 -20 16 C-19.02160156 15.74476563 -19.02160156 15.74476563 -18.0234375 15.484375 C-11.66657771 13.72170591 -6.21904855 12.06075662 -2.1875 6.5 C-1.14488188 4.30501448 -0.44095607 2.38116277 0 0 Z " fill="#E7E1DE" transform="translate(345,116)"/>
<path d="M0 0 C4.0743356 0.84881992 5.54405875 2.30225596 8 5.625 C8.625 8.625 8.625 8.625 8 11.625 C5.54405875 14.94774404 4.0743356 16.40118008 0 17.25 C-4.0743356 16.40118008 -5.54405875 14.94774404 -8 11.625 C-8.625 8.625 -8.625 8.625 -8 5.625 C-5.54405875 2.30225596 -4.0743356 0.84881992 0 0 Z " fill="#E4DDDB" transform="translate(244,166.375)"/>
<path d="M0 0 C3.9668392 3.79436793 3.9668392 3.79436793 4.0546875 6.98828125 C3.73835003 11.08003771 3.31599307 13.5260104 1 17 C-2.95447961 19.63631974 -6.26150838 20.44137092 -11 20 C-14.91835873 18.04082064 -16.60412328 17.18763017 -18 13 C-17.43152344 12.92523438 -16.86304688 12.85046875 -16.27734375 12.7734375 C-10.13365141 11.72726618 -6.09967996 9.76354859 -2 5 C-0.53574467 2.31520124 -0.53574467 2.31520124 0 0 Z " fill="#E8E1DF" transform="translate(275,102)"/>
<path d="M0 0 C2.9375 2.0625 2.9375 2.0625 5 5 C5.06625411 8.8427383 4.81899419 10.99200716 2.375 14 C-1.11581787 15.46981805 -3.39148956 14.98413921 -7 14 C-9.5881216 11.74582958 -9.94242643 10.39479021 -10.4375 7 C-10 4 -10 4 -8.375 1.625 C-5.24988831 -0.51323431 -3.71837535 -0.6829669 0 0 Z " fill="#E6DFDD" transform="translate(423,234)"/>
<path d="M0 0 C2.9375 2.0625 2.9375 2.0625 5 5 C5.06625411 8.8427383 4.81899419 10.99200716 2.375 14 C-1.11581787 15.46981805 -3.39148956 14.98413921 -7 14 C-9.5881216 11.74582958 -9.94242643 10.39479021 -10.4375 7 C-10 4 -10 4 -8.375 1.625 C-5.24988831 -0.51323431 -3.71837535 -0.6829669 0 0 Z " fill="#E6DFDD" transform="translate(227,49)"/>
<path d="M0 0 C-0.54349036 3.80443255 -2.03084153 5.6081779 -5 8 C-7.75 8.75 -7.75 8.75 -10 9 C-10.25 6.1875 -10.25 6.1875 -10 3 C-7.05843777 -0.39411027 -4.30855278 -0.29376496 0 0 Z " fill="#EFEDED" transform="translate(247,167)"/>
<path d="M0 0 C-1.67517239 3.53647504 -2.49280817 4.7911563 -6.1875 6.3125 C-7.5796875 6.6528125 -7.5796875 6.6528125 -9 7 C-8.02086745 1.32103121 -5.73500486 -0.46500039 0 0 Z " fill="#F9F7F6" transform="translate(423,235)"/>
<path d="M0 0 C-1.67517239 3.53647504 -2.49280817 4.7911563 -6.1875 6.3125 C-7.5796875 6.6528125 -7.5796875 6.6528125 -9 7 C-8.02086745 1.32103121 -5.73500486 -0.46500039 0 0 Z " fill="#F9F7F6" transform="translate(227,50)"/>
</svg>
